<svg id="Capa_1" enable-background="new 0 0 512 512" height="512" viewBox="0 0 512 512" width="512" xmlns="http://www.w3.org/2000/svg"><g id="XMLID_765_"><path id="XMLID_789_" d="m32.67 115.534c-16.669 16.669-16.654 43.694 0 60.348 10.944 10.944 47.489 47.487 60.176 60.173.035-.061 42.154 0 70.154-59.555 35.113-74.683 17.096-95.467 17.125-95.519-49.89-16.795-107.499-5.401-147.455 34.553z" fill="#ff9389"/><path id="XMLID_792_" d="m144.218 73.842c-40.013-2.78-80.963 11.108-111.548 41.691-16.669 16.669-16.654 43.694 0 60.348l34.029 34.028c1.136-4.524 2.388-9.038 3.79-13.536 13.142-42.213 37.915-83.356 73.729-122.531z" fill="#ff675a"/><path id="XMLID_795_" d="m438.162 367.77c-.845-12.16-3.21-24.235-7.139-35.907-.065.037-33.987-23.53-96.023 15.137-69.341 43.22-59.016 72.123-59.065 72.15l26.163 26.158 34.021 34.015c16.626 16.626 43.633 16.696 60.351 0 30.585-30.592 44.473-71.538 41.692-111.553z" fill="#ff9389"/><g id="XMLID_796_"><path id="XMLID_799_" d="m275.935 419.15 26.163 26.158c51.077-12.819 96.726-41.575 136.063-77.539-.845-12.16-3.21-24.235-7.139-35.907-.123.071-154.985 87.231-155.087 87.288z" fill="#ff675a"/></g><path id="XMLID_800_" d="m306.43 393.228c-.13-.125-177.809-182.284-177.939-182.411l-28.495-5.245c-8.066 25.876-11.157 52.191-8.932 78.881l3.312 27.819c.098.107 110.019 107.15 110.125 107.266.228.014-2.683-.162 23.046 1.394 26.427 2.204 52.757-.788 78.884-8.932v-18.772z" fill="#ff9389"/><path id="XMLID_803_" d="m139.103 244.679-10.613-33.862-28.495-5.245c-8.066 25.876-11.157 52.191-8.932 78.881l3.312 27.819h24.506c4.036-21.832 10.527-44.253 20.222-67.593z" fill="#ff675a"/><path id="XMLID_804_" d="m72 310.25-11.74 5.017c-4.43 4.593-11.814 11.172-20.989 22.719-48.372 60.873-37.751 126.873-39.207 135.764 0 21.078 17.101 38.179 38.18 38.179 8.816-1.447 74.859 9.185 135.758-39.205 9.493-7.542 14.752-13.021 22.72-20.989l3.278-10.485z" fill="#fce75f"/><path id="XMLID_810_" d="m72 310.25-11.74 5.017-6.594 6.593c-5.305 5.305-10.08 10.695-14.396 16.126 11.312 11.325 88.808 88.814 134.731 134.738 9.493-7.542 14.752-13.021 22.72-20.989l3.279-10.485z" fill="#ffd367"/><path id="XMLID_811_" d="m358.672.369v-.01c-64.059 3.358-128.159 30.236-178.207 80.283-35.134 35.133-65.599 77.161-80.47 124.931l39.108 39.106 167.327 167.322c44.907-13.98 86.795-42.413 124.594-80.138 49.91-49.909 77.212-113.643 80.614-178.542-7.849-8.12-145.888-145.888-152.966-152.952z" fill="#f4f2ff"/><path id="XMLID_812_" d="m370.749 33.383 11.453-13.991-23.53-19.024v-.01c-64.059 3.358-128.159 30.236-178.207 80.283-35.134 35.133-65.599 77.161-80.47 124.931l39.108 39.106c17.546-42.239 42.688-80.235 70.602-113.375 45.804-54.377 102.662-87.097 161.044-97.92z" fill="#e4e4fb"/><path id="XMLID_813_" d="m373.672 138.332c35.46 35.459 35.46 92.954 0 128.413s-92.957 35.459-128.417 0-35.46-92.954 0-128.413c35.46-35.47 92.957-35.47 128.417 0z" fill="#637e8f"/><path id="XMLID_815_" d="m338.624 173.379c16.102 16.102 16.102 42.217 0 58.319-16.103 16.102-42.219 16.102-58.321 0-16.112-16.102-16.112-42.217 0-58.319 16.102-16.112 42.218-16.112 58.321 0z" fill="#7ee6fd"/><path id="XMLID_816_" d="m495.598 49.499c-5.751-15.069-17.753-27.248-33.102-33.09-33.008-12.578-68.416-17.904-103.824-16.05v.01c17.782 69.495 83.128 135.1 152.966 152.952 1.865-35.407-3.472-70.815-16.04-103.822z" fill="#ff9389"/><path id="XMLID_820_" d="m492.677 43.101c-6.461-12.188-17.148-21.731-30.181-26.691-33.008-12.579-68.416-17.905-103.824-16.051v.01c2.791 10.908 6.838 21.992 12.079 33.014 9.543-1.77 19.126-2.974 28.709-3.571 31.574-1.962 63.143 2.466 93.217 13.289z" fill="#ff675a"/><g id="XMLID_821_"><path id="XMLID_822_" d="m100.736 355.753c-7.239 7.645-13.737 15.771-19.452 24.255l18.865 35.156 31.831 15.539c8.481-5.714 16.606-12.212 24.254-19.453l7.766-8.25-53.667-59z" fill="#ffbf6d"/><path id="XMLID_824_" d="m81.284 380.008c-15.59 23.144-25.302 48.975-27.979 75.178l-.392 3.884c2.482-.567 38.402-.972 79.066-28.368-1.549-1.55-50.541-50.54-50.695-50.694z" fill="#ffd367"/></g><path id="XMLID_825_" d="m118.877 312.294c-14.942-14.943-25.901-25.904-27.824-27.83l-30.793 30.803c2.926 2.933 26.638 26.647 53.515 53.523 36.716 36.717 79.34 79.337 82.947 82.945 7.976-7.973 22.865-22.854 30.804-30.792-4.799-4.798-70.035-70.032-108.649-108.649z" fill="#637e8f"/><path id="XMLID_827_" d="m91.053 284.464-30.793 30.803c2.926 2.933 26.638 26.647 53.515 53.523-.069-18.994 1.655-37.831 5.103-56.496-14.943-14.943-25.902-25.904-27.825-27.83z" fill="#567181"/></g></svg>